<svg xmlns="http://www.w3.org/2000/svg" viewBox="0 0 1500 560" width="1500" height="560" font-family="monospace, Courier New, Courier">
  <defs>
    <style>
      .key { fill: #333; stroke: #555; stroke-width: 1; rx: 5; ry: 5; }
      .kw { fill: #2a2a2a; stroke: #555; stroke-width: 1; rx: 5; ry: 5; }
      .kl { font-size: 12px; fill: #bbb; font-weight: bold; text-anchor: middle; }
      .lo { font-size: 8.5px; fill: #FF8888; text-anchor: middle; }
      .up { font-size: 8.5px; fill: #88BBFF; text-anchor: middle; }
      .ct { font-size: 10px; fill: #88FF88; }
      .sp { font-size: 8.5px; fill: #DDAAFF; text-anchor: middle; }
      .nv { font-size: 8.5px; fill: #bbb; text-anchor: middle; }
    </style>
  </defs>
  <rect width="1500" height="560" fill="#1a1a1a" rx="8"/>
  <text x="470" y="22" text-anchor="middle" font-size="15" font-weight="bold" fill="#fff">Timely Keyboard Reference</text>

  <!-- Row 0: Esc -->
  <rect x="10" y="34" width="58" height="55" class="key"/>
  <text x="39" y="54" class="kl">Esc</text>
  <text x="39" y="80" class="sp">close popup</text>

  <!-- Row 1: Number row  kw=62 gap=4 -->
  <rect x="10" y="97" width="58" height="55" class="key"/>
  <text x="39" y="127" class="kl">` ~</text>

  <rect x="72" y="97" width="62" height="55" class="key"/>
  <text x="103" y="127" class="kl">1</text>

  <rect x="138" y="97" width="62" height="55" class="key"/>
  <text x="169" y="127" class="kl">2</text>

  <rect x="204" y="97" width="62" height="55" class="key"/>
  <text x="235" y="127" class="kl">3</text>

  <rect x="270" y="97" width="62" height="55" class="key"/>
  <text x="301" y="127" class="kl">4</text>

  <rect x="336" y="97" width="62" height="55" class="key"/>
  <text x="367" y="127" class="kl">5</text>

  <rect x="402" y="97" width="62" height="55" class="key"/>
  <text x="433" y="127" class="kl">6</text>

  <rect x="468" y="97" width="62" height="55" class="key"/>
  <text x="499" y="127" class="kl">7</text>

  <rect x="534" y="97" width="62" height="55" class="key"/>
  <text x="565" y="127" class="kl">8</text>

  <rect x="600" y="97" width="62" height="55" class="key"/>
  <text x="631" y="127" class="kl">9</text>

  <rect x="666" y="97" width="62" height="55" class="key"/>
  <text x="697" y="127" class="kl">0</text>

  <rect x="732" y="97" width="62" height="55" class="key"/>
  <text x="763" y="127" class="kl">- _</text>

  <rect x="798" y="97" width="62" height="55" class="key"/>
  <text x="829" y="127" class="kl">= +</text>

  <rect x="864" y="97" width="76" height="55" class="kw"/>
  <text x="902" y="130" class="nv">Bksp</text>

  <!-- Row 2: QWERTY  start x=10+80=90 offset, kw=62 -->
  <rect x="10" y="160" width="76" height="55" class="kw"/>
  <text x="48" y="193" class="nv">Tab</text>

  <rect x="90" y="160" width="62" height="55" class="key"/>
  <text x="121" y="176" class="kl">Q</text>
  <text x="121" y="207" class="lo">q quit</text>

  <rect x="156" y="160" width="62" height="55" class="key"/>
  <text x="187" y="176" class="kl">W</text>
  <text x="187" y="194" class="up">W Week-1</text>
  <text x="187" y="207" class="lo">w Week+1</text>

  <rect x="222" y="160" width="62" height="55" class="key"/>
  <text x="253" y="176" class="kl">E</text>
  <text x="253" y="194" class="up">E Prev evt</text>
  <text x="253" y="207" class="lo">e Next evt</text>

  <rect x="288" y="160" width="62" height="55" class="key"/>
  <text x="319" y="176" class="kl">R</text>
  <text x="319" y="207" class="lo">r reply</text>

  <rect x="354" y="160" width="62" height="55" class="key"/>
  <text x="385" y="176" class="kl">T</text>
  <text x="385" y="207" class="lo">t today</text>

  <rect x="420" y="160" width="62" height="55" class="key"/>
  <text x="451" y="176" class="kl">Y</text>
  <text x="451" y="194" class="up">Y Year-1</text>
  <text x="451" y="207" class="lo">y Year+1</text>

  <rect x="486" y="160" width="62" height="55" class="key"/>
  <text x="517" y="193" class="kl">U</text>

  <rect x="552" y="160" width="62" height="55" class="key"/>
  <text x="583" y="176" class="kl">I</text>
  <text x="583" y="207" class="lo">i import ICS</text>

  <rect x="618" y="160" width="62" height="55" class="key"/>
  <text x="649" y="176" class="kl">O</text>
  <text x="649" y="194" class="up">O Outlook</text>

  <rect x="684" y="160" width="62" height="55" class="key"/>
  <text x="715" y="176" class="kl">P</text>
  <text x="715" y="194" class="up">P Prefs</text>

  <rect x="750" y="160" width="62" height="55" class="key"/>
  <text x="781" y="193" class="kl">Å</text>

  <rect x="816" y="160" width="62" height="55" class="key"/>
  <text x="847" y="193" class="kl">^</text>

  <rect x="882" y="160" width="58" height="55" class="key"/>
  <text x="911" y="193" class="kl">\</text>

  <!-- Row 3: ASDF  start x=10+90=100 offset -->
  <rect x="10" y="223" width="86" height="55" class="kw"/>
  <text x="53" y="255" class="nv">Ctrl</text>

  <rect x="100" y="223" width="62" height="55" class="key"/>
  <text x="131" y="239" class="kl">A</text>
  <text x="131" y="270" class="lo">a accept</text>

  <rect x="166" y="223" width="62" height="55" class="key"/>
  <text x="197" y="239" class="kl">S</text>
  <text x="197" y="257" class="up">S Sync</text>

  <rect x="232" y="223" width="62" height="55" class="key"/>
  <text x="263" y="239" class="kl">D</text>
  <text x="263" y="257" class="up">D Day-1</text>
  <text x="263" y="270" class="lo">d Day+1</text>

  <rect x="298" y="223" width="62" height="55" class="key"/>
  <text x="329" y="255" class="kl">F</text>

  <rect x="364" y="223" width="62" height="55" class="key"/>
  <text x="395" y="239" class="kl">G</text>
  <text x="395" y="257" class="up">G Google</text>
  <text x="395" y="270" class="lo">g go to date</text>

  <rect x="430" y="223" width="62" height="55" class="key"/>
  <text x="461" y="239" class="kl">H</text>
  <text x="461" y="270" class="nv">h = Day-1</text>

  <rect x="496" y="223" width="62" height="55" class="key"/>
  <text x="527" y="239" class="kl">J</text>
  <text x="527" y="270" class="lo">j next e/d</text>

  <rect x="562" y="223" width="62" height="55" class="key"/>
  <text x="593" y="239" class="kl">K</text>
  <text x="593" y="270" class="lo">k prev e/d</text>

  <rect x="628" y="223" width="62" height="55" class="key"/>
  <text x="659" y="239" class="kl">L</text>
  <text x="659" y="270" class="nv">l = Day+1</text>

  <rect x="694" y="223" width="62" height="55" class="key"/>
  <text x="725" y="255" class="kl">Ø</text>

  <rect x="760" y="223" width="62" height="55" class="key"/>
  <text x="791" y="255" class="kl">Æ</text>

  <rect x="826" y="223" width="114" height="55" class="kw"/>
  <text x="883" y="248" class="nv">Enter</text>
  <text x="883" y="268" class="sp">edit event</text>

  <!-- Row 4: ZXCV  start x=10+100=110 offset -->
  <rect x="10" y="286" width="96" height="55" class="kw"/>
  <text x="58" y="318" class="nv">Shift</text>

  <rect x="110" y="286" width="62" height="55" class="key"/>
  <text x="141" y="315" class="kl">Z</text>

  <rect x="176" y="286" width="62" height="55" class="key"/>
  <text x="207" y="302" class="kl">X</text>
  <text x="207" y="333" class="sp">x del event</text>

  <rect x="242" y="286" width="62" height="55" class="key"/>
  <text x="273" y="302" class="kl">C</text>
  <text x="273" y="320" class="up">C Calendars</text>

  <rect x="308" y="286" width="62" height="55" class="key"/>
  <text x="339" y="302" class="kl">V</text>
  <text x="339" y="333" class="lo">v view popup</text>

  <rect x="374" y="286" width="62" height="55" class="key"/>
  <text x="405" y="315" class="kl">B</text>

  <rect x="440" y="286" width="62" height="55" class="key"/>
  <text x="471" y="302" class="kl">N</text>
  <text x="471" y="333" class="lo">n new event</text>

  <rect x="506" y="286" width="62" height="55" class="key"/>
  <text x="537" y="302" class="kl">M</text>
  <text x="537" y="320" class="up">M Month-1</text>
  <text x="537" y="333" class="lo">m Month+1</text>

  <rect x="572" y="286" width="62" height="55" class="key"/>
  <text x="603" y="315" class="kl">, &lt;</text>

  <rect x="638" y="286" width="62" height="55" class="key"/>
  <text x="669" y="315" class="kl">. &gt;</text>

  <rect x="704" y="286" width="62" height="55" class="key"/>
  <text x="735" y="302" class="kl">/ ?</text>
  <text x="735" y="333" class="sp">? help</text>

  <rect x="770" y="286" width="170" height="55" class="kw"/>
  <text x="855" y="318" class="nv">Shift</text>

  <!-- Row 5: Bottom -->
  <rect x="10" y="349" width="70" height="50" class="kw"/>
  <text x="45" y="378" class="nv">Ctrl</text>

  <rect x="84" y="349" width="58" height="50" class="kw"/>
  <text x="113" y="378" class="nv">Alt</text>

  <rect x="146" y="349" width="330" height="50" class="key"/>
  <text x="311" y="378" class="nv">Space</text>

  <rect x="480" y="349" width="62" height="50" class="key"/>
  <text x="511" y="378" class="kl"># @</text>

  <!-- Nav cluster -->
  <rect x="990" y="97" width="64" height="55" class="key"/>
  <text x="1022" y="120" class="nv">Home</text>
  <text x="1022" y="143" class="nv">top slot</text>

  <rect x="1058" y="97" width="64" height="55" class="key"/>
  <text x="1090" y="120" class="nv">End</text>
  <text x="1090" y="143" class="nv">btm slot</text>

  <rect x="990" y="160" width="64" height="55" class="key"/>
  <text x="1022" y="183" class="nv">PgUp</text>
  <text x="1022" y="206" class="nv">page slots</text>

  <rect x="1058" y="160" width="64" height="55" class="key"/>
  <text x="1090" y="183" class="nv">PgDn</text>
  <text x="1090" y="206" class="nv">page slots</text>

  <rect x="990" y="223" width="64" height="55" class="key"/>
  <text x="1022" y="248" class="nv">Del</text>
  <text x="1022" y="268" class="sp">del event</text>

  <rect x="1022" y="286" width="60" height="55" class="key"/>
  <text x="1052" y="310" class="nv">UP</text>
  <text x="1052" y="333" class="nv">prev slot</text>

  <rect x="958" y="349" width="60" height="50" class="key"/>
  <text x="988" y="370" class="nv">LEFT</text>
  <text x="988" y="390" class="nv">prev day</text>

  <rect x="1022" y="349" width="60" height="50" class="key"/>
  <text x="1052" y="370" class="nv">DOWN</text>
  <text x="1052" y="390" class="nv">next slot</text>

  <rect x="1086" y="349" width="60" height="50" class="key"/>
  <text x="1116" y="370" class="nv">RIGHT</text>
  <text x="1116" y="390" class="nv">next day</text>

  <!-- Right panel: Ctrl combos -->
  <rect x="1180" y="34" width="300" height="200" rx="6" fill="#1a2a1a" stroke="#4a4" stroke-width="1"/>
  <text x="1330" y="56" text-anchor="middle" font-size="13" font-weight="bold" fill="#66FF66">Ctrl Combos</text>
  <text x="1194" y="80" class="ct">C-R   Refresh all calendars</text>
  <text x="1194" y="105" class="ct">C-L   Redraw screen</text>
  <text x="1194" y="130" class="ct">C-Y   Copy event to clipboard</text>

  <!-- Legend -->
  <rect x="20" y="470" width="14" height="14" fill="#3a2222" rx="2" stroke="#FF6666" stroke-width="0.5"/>
  <text x="40" y="482" font-size="10" fill="#FF6666">lowercase</text>
  <rect x="120" y="470" width="14" height="14" fill="#22223a" rx="2" stroke="#6699FF" stroke-width="0.5"/>
  <text x="140" y="482" font-size="10" fill="#6699FF">UPPERCASE</text>
  <rect x="240" y="470" width="14" height="14" fill="#223a22" rx="2" stroke="#66FF66" stroke-width="0.5"/>
  <text x="260" y="482" font-size="10" fill="#66FF66">Ctrl+key</text>
  <rect x="350" y="470" width="14" height="14" fill="#2a223a" rx="2" stroke="#CC99FF" stroke-width="0.5"/>
  <text x="370" y="482" font-size="10" fill="#CC99FF">special</text>
  <text x="460" y="482" font-size="10" fill="#888">gray = navigation</text>
</svg>
